/* XPM */
static char *_911dc81f4b3475e8154a2fce3d31f29AXX9FhgEiQmspYmK[] = {
/* columns rows colors chars-per-pixel */
"40 40 169 2 ",
"   c #5F8C03",
".  c #638F04",
"X  c #659104",
"o  c #6B9505",
"O  c #6E9905",
"+  c #739C05",
"@  c #739C08",
"#  c #77A006",
"$  c #7CA404",
"%  c #77A008",
"&  c #7BA309",
"*  c #80A705",
"=  c #84AA05",
"-  c #89AE06",
";  c #80A70C",
":  c #85AB0A",
">  c #89AE09",
",  c #8CB107",
"<  c #8DB20A",
"1  c #92B60B",
"2  c #93B80B",
"3  c #97B909",
"4  c #95B80A",
"5  c #95B90A",
"6  c #94B80B",
"7  c #96B80B",
"8  c #96BA0B",
"9  c #95B90C",
"0  c #94B80D",
"q  c #96B90D",
"w  c #96BA0C",
"e  c #96BA0D",
"r  c #97BB0D",
"t  c #94B80E",
"y  c #95B90E",
"u  c #96B90E",
"i  c #97BB0E",
"p  c #97BA0F",
"a  c #96B90C",
"s  c #98BA0C",
"d  c #98BB0C",
"f  c #98BB0F",
"g  c #98BC0D",
"h  c #99BC0D",
"j  c #9ABC0D",
"k  c #9ABD0D",
"l  c #9BBD0D",
"z  c #99BE0D",
"x  c #98BD0E",
"c  c #9ABC0E",
"v  c #9ABD0E",
"b  c #9BBD0F",
"n  c #99BE0E",
"m  c #9BBE0E",
"M  c #9BBF0F",
"N  c #9DBF0C",
"B  c #9CBE0D",
"V  c #9DBF0D",
"C  c #9CBF0E",
"Z  c #9DBE0F",
"A  c #9DBF0F",
"S  c #9EBF0E",
"D  c #9EBF0F",
"F  c #9ABD0D",
"G  c #82A613",
"H  c #84AA13",
"J  c #8AAE13",
"K  c #8EB312",
"L  c #8EB01F",
"P  c #93B713",
"I  c #97BB10",
"U  c #97B911",
"Y  c #99BC10",
"T  c #9ABE10",
"R  c #9CBF10",
"E  c #9CBF11",
"W  c #9BBE10",
"Q  c #96B71C",
"!  c #9CBD1A",
"~  c #9CC00F",
"^  c #9DC00F",
"/  c #9EC00E",
"(  c #9FC10F",
")  c #9FC20F",
"_  c #9EC10E",
"`  c #9DC010",
"'  c #9EC010",
"]  c #9EC110",
"[  c #9FC110",
"{  c #9FC210",
"}  c #9EC110",
"|  c #A1C20F",
" . c #A0C30F",
".. c #A1C30F",
"X. c #A2C30E",
"o. c #A2C30F",
"O. c #A3C30F",
"+. c #A1C40F",
"@. c #A2C40F",
"#. c #A3C40F",
"$. c #A3C50F",
"%. c #A4C50F",
"&. c #A2C30F",
"*. c #A0C210",
"=. c #A0C310",
"-. c #A1C310",
";. c #A0C311",
":. c #A1C311",
">. c #A1C411",
",. c #A2C410",
"<. c #A3C410",
"1. c #A3C510",
"2. c #A2C411",
"3. c #A3C411",
"4. c #A2C511",
"5. c #A3C511",
"6. c #A3C611",
"7. c #A2C512",
"8. c #A4C510",
"9. c #A5C510",
"0. c #A4C411",
"q. c #A4C511",
"w. c #A4C610",
"e. c #A5C610",
"r. c #A4C710",
"t. c #A5C710",
"y. c #A4C611",
"u. c #A5C611",
"i. c #A4C711",
"p. c #A5C711",
"a. c #A6C610",
"s. c #A6C710",
"d. c #A6C711",
"f. c #A7C711",
"g. c #A4C612",
"h. c #A4C511",
"j. c #A6C810",
"k. c #A7C810",
"l. c #A6C811",
"z. c #A7C811",
"x. c #A7C911",
"c. c #A5C812",
"v. c #A6C812",
"b. c #A7C812",
"n. c #A7C912",
"m. c #A7C811",
"M. c #A8C911",
"N. c #A8CA10",
"B. c #A8CA11",
"V. c #A9CA11",
"C. c #AACB11",
"Z. c #A8C912",
"A. c #A9C912",
"S. c #ABCA12",
"D. c #ABCB12",
"F. c #AACB13",
"G. c #ABCB13",
"H. c #ABCC12",
"J. c #ACCC12",
"K. c #ADCC12",
"L. c #ADCD12",
"P. c #ACCC13",
"I. c #ACCD13",
"U. c #ADCE12",
"Y. c #AACB12",
"T. c #A2C21A",
"R. c #A9C71D",
"E. c #ABCA1A",
"W. c #A9C820",
/* pixels */
"n A %.>.u.u.q q r n z.z.$.q z.>.z.( q $.S.u.=.u.u.1 1 u.V.u.u.=.1 n n q u.=.>.V.",
">.u.%.C.n 6 T V.u.u.z.( ~ < < ( { >.H.1 1 A O.k.=.u.u.n 1 3 j >.z.u.S.O.[ u.[ < ",
"> A 1 N 4 + * < n n H.q # $ = H.z.z.r o . * - - : > < @ $ * O : , , < * q < @   ",
"= = * = * $ = * = * 3 1 $ $ < %.( * * * - , - = * * > * , = $ $ = = $ $ < $ $ = ",
"< > - 3 + . - = $ $ # $ , , < < # O : * $ $ $ # $ - - & + > < q & o + E k.A 2 1 ",
"u.u.[ V.< & j s 0 q $ : n >.{ z.1 > * 1 q 1 >.q q u.4 < O T >.n.T : > >.k.$.k.>.",
"O.k.%.z.>.z.z.z.>.$.( >.( z.z.$.z.z.u.V.P.u.u.%.u.u.=.=.u.u.>.=.>.P.z.$.$.>.( ( ",
"[ %.u.H.u.=.u.>.< q V.z.>.z.1 n z.>.n.>.< = & < n G.< < >.I 1 = - 3 r n P.n = = ",
"- , A >.2 n < 3 $ 1 V.A q 1 * > u.[ A n , , $ $ = j < 1 = = = = * $ > * n n * $ ",
"< , q ( : = $ = , & @ : 6 = * $ < * ( ( >.$.< & q j u.V.< = n j q T z.> @ >.q q ",
"u.%.V.$.>.q 3 ( k.V.[ =.V.O.j n d ( P.V.u.z.( ( k.u.u.k.=.j u.=.z.H.P.[ z.z.z.>.",
">.>.>.u.z.>.z.H.1 > j =.u.A [ >.%.P.n 1 n >.$.V.I 6 j I =.=.0.V.n ; 1 V.>.z.V.A ",
"A O.( z.u.[ ( ( > # - 1 O.1 3 1 < 3 - $ = $.$.%.s # = * 1 < 1 1 = # & $.V.( d 1 ",
"* , = 1 n = * - $ * = $ * * * $ * $ - - * 1 = < * $ - - * * * $ $ * $ = > = , $ ",
"n 4 = * O = $ * = @ X @ > - * $ = & > n $.( - @ < s O.u.> = s 1 q q =.< : & & @ ",
"k.V.O.O.s < 1 d O.u.6 T V.( 1 3 < j u.u.u.z.O.j u.u.V.V.q < u.( u.Z.V.u.V.$.n E ",
"$.>.>.z.H.u.u.V.( j E u.u.=.u.u.V.P.V.n O.u.O.V.%.[ n ( >.k.k.V.=.E k.u.u.u.S.O.",
"- * > > < O.>.=.: X . < k.1 j O.q I + o - O.u.>.q * * < ( d 3 q > $ < E V.=.N < ",
", $ * = 3 A , 1 , - > = - 1 6 > - + + = > 4 U 6 * * , ( < * = $ $ * $ > 1 < A N ",
"n < O.$.z.C.1 @ . 1 V.A 1 ; k.E j 1 - s =.E L G = # = H.( q 1 , $ = $ O A 0.$.P.",
"$.=.z.u.u.z.E r I E k.S.R.Q T.W.T.T.! R.E.W.R.R.W.Q } H.i.>.H.k.A O.[ T k.=.u.k.",
"[ >.[ P.1 & ( >.=.u.k.I K : : T.T.T.E.: ; K J ! P W.} < > < > [ 0.I V.6 P u.6 & ",
"< 8 > , $ + - = q 4 S.j + $ 4 P.%.X.1 o X # $ $ & > = @ $ $ O $ > > = $ > > O . ",
"= = * * = 3 - * $ * < > $ = < =.O.* $ = = - , = * * * = < - # = = = * * = * * = ",
"O./ - - q P.u.O.n * $ $ j ( n =.=.# * * 3 A j * $ 1 q 1 V.% & I %.: o . # < < n ",
"k.C.( n =.u.>.>.z.q 1 3 u.u.>.Z.A q 3 j z.u.P.( 3 >.$.V.[ < V.u.V.n < > < =.O.$.",
"$.z.>.>.>.A A ( >.u.u.u.n n A [ u.$.n.P.[ n n $.z.[ =.E 3 2 n u.u.u.V.V.E =.u.>.",
"u.u.$.n V.j + , V.O.( n - o $ < O.( A n @ * * < >.u.V.[ # @ o [ u.n 1 < - j P.u.",
"1 = > = < , - = 1 * = * = * > 2 3 < * $ $ = * = * > z.$.1 = n k.1 $ , 3 ( 2 %.< ",
"( O.j n : o %.u.d n = * = < >.>.I @ , ( ~ 3 1 1 = r ( * O r $.%.1 = 4 V.V.u.u.A ",
">.k.>.V.[ q O.u.$.>.( n ( O.V.>.>.>.( z.P.z.z.>.[ z.u.( T z.z.u.u.O.( O.$.[ O.>.",
"O.u.>.V.u.z.=.u.& : z.u.>.V.I < z.i.z.z.2 < > O r H.( z.{ ( 1 < n u.>.>.u.q = * ",
"d 2 d J.>.( d < , < V.%.A 3 = : ( $.n q * $ - # < 1 - , > = - # - < d n P.> * - ",
"* $ * > 1 = = $ = $ - - * $ * * < < 1 1 - 5 $ $ $ $ - , # $ * * $ * - * 1 1 * = ",
"< @ > < ; # * # O ; < 1 T + = # O $ ( A r.k.& & ( ( $.P.: X n q A A V.; @ 0.E n ",
">.>.Z.Z.[ 1 q >.>.z.( >.u.O.A 4 3 / J.V.k.$.u.=.u.$.V.C.j < z.u.u.V.V.>.V.k.k.u.",
"u.u.>.u.u.z.u.V.A > q =.u.=.u.u.%.P.O.< q u.=.z.$.n < I z.z.=.u.n q u.z.u.u.V.j ",
"j =.( V.V.%.A n - $ $ < [ & : 1 3 s , O O n u.O.1 * o = n < & > - * , O.u.( 1 $ ",
"$ < = 3 3 , - - * = $ $ * $ # * * + * * = 1 < < * = , * * $ * $ = = $ , < - 1 = ",
"= * = - : - = * * = O $ , - * , + O , = = = : = $ * , # = $ = = * X . o + # $ , "
};
