/* XPM */
static char *c__1_1661080294[] = {
/* columns rows colors chars-per-pixel */
"40 40 232 2 ",
"   c #3D2418",
".  c #482B19",
"X  c #4A321C",
"o  c #56361D",
"O  c #663E1D",
"+  c #543222",
"@  c #5C3D24",
"#  c #563926",
"$  c #492F22",
"%  c #643C24",
"&  c #68441D",
"*  c #76441B",
"=  c #5F4223",
"-  c #654423",
";  c #6D4821",
":  c #68472C",
">  c #774D25",
",  c #7C5324",
"<  c #735329",
"1  c #694231",
"2  c #764E32",
"3  c #754A38",
"4  c #7A5835",
"5  c #774F40",
"6  c #8C5A26",
"7  c #8B5E2A",
"8  c #865925",
"9  c #955C26",
"0  c #9A5E26",
"q  c #935F28",
"w  c #825938",
"e  c #8D632A",
"r  c #85632C",
"t  c #9E6426",
"y  c #966429",
"u  c #9B6429",
"i  c #9C6A2C",
"p  c #95672A",
"a  c #9A722D",
"s  c #876435",
"d  c #946B34",
"f  c #9F7432",
"g  c #9E773E",
"h  c #8A7C2A",
"j  c #A46C2C",
"k  c #AB6D2B",
"l  c #A56528",
"z  c #A4732D",
"x  c #AC732D",
"c  c #A07E2C",
"v  c #B3742E",
"b  c #B9752D",
"n  c #B3792E",
"m  c #BB7A2E",
"M  c #A47332",
"N  c #AB7732",
"B  c #AD7A32",
"V  c #A7783A",
"C  c #B27730",
"Z  c #B47D33",
"A  c #BC7D32",
"S  c #B17D39",
"D  c #B16F2A",
"F  c #C67D2E",
"G  c #C07D32",
"H  c #825947",
"J  c #876048",
"K  c #9A6A40",
"L  c #9E7944",
"P  c #976B56",
"I  c #A87B44",
"U  c #AB774C",
"Y  c #628E05",
"T  c #6A9505",
"R  c #6F9907",
"E  c #739C08",
"W  c #74990A",
"Q  c #7E9A13",
"!  c #7A871A",
"~  c #7DA405",
"^  c #7AA20A",
"/  c #77A006",
"(  c #8A9917",
")  c #989D1F",
"_  c #81A705",
"`  c #84AA05",
"'  c #89AE06",
"]  c #83AA0A",
"[  c #8AAE0A",
"{  c #84A60B",
"}  c #8CB107",
"|  c #8DB20A",
" . c #92B60C",
".. c #96B90D",
"X. c #9ABD0E",
"o. c #8CA619",
"O. c #96A81A",
"+. c #9AB615",
"@. c #A2BA1B",
"#. c #A8BA1B",
"$. c #988428",
"%. c #888B2C",
"&. c #A3872C",
"*. c #A8992A",
"=. c #B58135",
"-. c #BC8234",
";. c #B5833A",
":. c #BC853A",
">. c #BD893A",
",. c #BF8837",
"<. c #AF8E39",
"1. c #A7A628",
"2. c #A8B724",
"3. c #ACA435",
"4. c #B7A838",
"5. c #B9B732",
"6. c #C38233",
"7. c #CB8634",
"8. c #CD8936",
"9. c #C18438",
"0. c #C58C3B",
"q. c #CB8C3B",
"w. c #C48936",
"e. c #D38B34",
"r. c #D38E3C",
"t. c #DA8E36",
"y. c #C6913E",
"u. c #CD913E",
"i. c #C99A3F",
"p. c #D4923D",
"a. c #DB933C",
"s. c #D89A3E",
"d. c #C1812F",
"f. c #E0983E",
"g. c #C3AF3E",
"h. c #9EC10F",
"j. c #9EC110",
"k. c #A2C30F",
"l. c #A3C511",
"z. c #A7C812",
"x. c #A9CA12",
"c. c #ACC61A",
"v. c #B5C22C",
"b. c #B6C728",
"n. c #AEC223",
"m. c #9B8D46",
"M. c #AE8542",
"N. c #AB844C",
"B. c #B68842",
"V. c #BA8942",
"C. c #BE8D4A",
"Z. c #B78543",
"A. c #BE914E",
"S. c #B99743",
"D. c #B38B5A",
"F. c #BB9354",
"G. c #AF8C55",
"H. c #BAA543",
"J. c #C28C42",
"K. c #CC8C42",
"L. c #C59246",
"P. c #CB9343",
"I. c #CB9A45",
"U. c #C5934B",
"Y. c #CA964A",
"T. c #CD9B4C",
"R. c #C09843",
"E. c #D39443",
"W. c #DB9642",
"Q. c #D59A45",
"!. c #DC9A45",
"~. c #D39D4C",
"^. c #DC9C4A",
"/. c #D29548",
"(. c #CD9D53",
"). c #C59857",
"_. c #D39E51",
"`. c #DB9E52",
"'. c #E29B44",
"]. c #E39E4B",
"[. c #DDA24F",
"{. c #D7A24F",
"}. c #D5A253",
"|. c #DBA353",
" X c #DBAD56",
".X c #D4A35A",
"XX c #DCA65A",
"oX c #DDAA5D",
"OX c #D1AD4D",
"+X c #E3A14D",
"@X c #EBA34D",
"#X c #EBA447",
"$X c #E3A552",
"%X c #E9A653",
"&X c #E6AA55",
"*X c #ECAA54",
"=X c #E4AB5B",
"-X c #EBAC5B",
";X c #E1A658",
":X c #F2AC5A",
">X c #F4AB54",
",X c #E9B05D",
"<X c #E9B85D",
"1X c #F6B35F",
"2X c #C79F62",
"3X c #C9A365",
"4X c #DCAA62",
"5X c #D5A866",
"6X c #DAB173",
"7X c #E3AE64",
"8X c #EAAF62",
"9X c #E4B165",
"0X c #ECB363",
"qX c #E4B26B",
"wX c #EBB76C",
"eX c #F4B363",
"rX c #F4BB6C",
"tX c #F8BA67",
"yX c #EDBD7A",
"uX c #E9B872",
"iX c #F3BE73",
"pX c #F8BD76",
"aX c #F1AB60",
"sX c #CBC343",
"dX c #D6C74E",
"fX c #E2C35C",
"gX c #EFC17B",
"hX c #F4C179",
"jX c #EFC267",
"kX c #F2C484",
"lX c #F2C78B",
"zX c #EDC184",
/* pixels */
"X.j.k.z.l.l...X.X.X.z.z.k...l.l.l.h...h.z.z.l.l.l.....l.l.l.X.z...X.h...l.l.h.l.",
"l.l.k.z...X.j.l.k.l.l.z.h.| ..#.5.4.g.i.I.I.I.S.S.H.2.@...X.X.l.l.k.l.l.j.l.l. .",
"| X. .h. ./ ~ | k...l.@.3.OX^.W.E.E.q.p.P.E.8.6.z :.y =.&.) R  .' } | ` ..] E Y ",
"` ` _ ' ~ ~ ` ` ] | OX=X+Xp.r.W.E.e.E.^.Q.p.q.v B :.N m k k h { _ _ ` / | ` ` ] ",
"| ' | } / T | [ OX&X$X!.!.a.r./.^.E.+X^.~.q.-.n 9.=.-.m C A x M ( R E X.z.k. ...",
"l.l.l.l.| ~ 2. X-X'.r.E.'.!.8.q.E.!.`.^.I d Z n z Z -.Z -.6.A k c [ [ l.x.k.k.k.",
"l.x.l.x.l.v.8X#X'.8.q.w.P.e.l P.+X$X}.V % 8 p N B N J.w.8 9.w.G x *.l.l.k.z.X.X.",
"X.k.l.x.n.-X>X'.!.G q.s.E.u.XX8X'.=X`.J w z z V ;.;.,.=.=.:.9.A v v 1...x...' ' ",
"| } l.l.0X#X'.a.7.A q.`.$X=X$XwX=X^.V : X : M.I.>.Y.y.>.=.n j 8.7.m k ( X.X._ ` ",
"| } X.5.aX].a.m j J.^.].&X&X[.XX=X`.y > X o V {.=.T.u.=.=.Z x u u.F k i ( l.X.X.",
"z.k.n.gX:X].7.A V @X].%X+X[.u.P.qX&XZ C.A.S.L.oXL.~.0.w.-.B B 8 S a.b t $.k.z.l.",
"l.k.sX1X%X$XJ.i w I `.%X[.p.I.(.7Xs.J.U.(.U.4X[.u.I.L.0.,.m v x j t.F l y @.x.X.",
"h.X.<XrX0X~.N.K H % . ).$XP.>.4X|.XXL.V V (.7XQ.,.>.,.q.u.z a m x u.6.b 9 $... .",
"[ +.1X=XqX4X4 3 % % . N.9X(.;.4X7X.XS - % 7 ~.u.r ;.=.P.-.& r ;.x 9.8.m 0 u } _ ",
"X.sXpX;XuXqXl 2 % @ w qX9XXXT.qXoX}.6XD.1 . M I.B.V z ;.>.= . r u.-.6.G l 9 Q E ",
"l.fXpXeX%X;X`.K.H w 5XzXuX=XqXXX4X.X5X3XJ X r ).).d a <.,.e # s E.n -.v t l ) h.",
"c.gXrX:Xa.^.7X!.V yXyXuXkX,X9X9XXXoX.X(.L # < D.3XB.f B.L.=.r B q.m C C b t $.k.",
"+.tX1X*X'.%X&XG P.kXeXqXgXqXwXoX4X4X_..XM.- M.F.F.L B.A.=.z ;.0.w.n z v v l a  .",
"+.iX>X>X@Xa.$Xq.K.hX0X|.kX,XqX7XqX4XoXoXT.M ).5X4X.XR.L.=.;.N ;.Z i z -.v 0 q @.",
"2.pX:X@X-Xa.q.q.XXhX=XuXkX=XoXoXY.A.2X5X(.>.U.4X X.XY..X>.;.y X ; i v -.D 9 7 #.",
"v.pX>X>X@Xe.G Q.yX0X=XlXhX0X=X|.L., # 2 F.0.0..X}.(.}.{.,.p , o 1 & i 9.v 9 6 +.",
"v.hX1X>X@XF 8.|.pXtX-XkXhXwX=X9X~.8 P 2 ;.=.>.(.(.U.}.I.-.p & X # & i 6.D 9 6 ( ",
"#.tX>X:X!.6.:.|.iXrX0X0XwX<XoXqXoXL.D.2 d f <.(.}.L..X}.0.z p < @ 6 S m k u 8 R ",
"O.hXeXeXt.E.q.$XwXiX0X=XhX0X=XoX}.P.3XG.g M..X}.}.y.).}.0.c g ;.z i -.u 6 & r { ",
"l.jX1X1Xf.!.!.^.*XiXeX+X{.qX[.&XXXT.T.A.F.;.I._.L.;.(.~.=.n B z M q.K.9 & . %.+.",
"z.dX1XeX#X!.+X9.9.qX0X7Xw.4XgX&X[..XI.y.y.T.XXQ.M ).}.{.,.=.=.N Z E.9.8 . $ O.l.",
"z.b.tX@X#X].j * O ; .XoX_.uXkX*X|.{.{.}.{.|.+XQ.z V.L.y.Z w.=.B K.E.A 8 + : j.j.",
"z.z.eX1X-X].* w + @ d 7X=X7XyX&X{.~.Q.{.{.$X{.Q.=.B J.B ;.0.-.6 Q.r.m u 7 h c.z.",
"| | 1.eX:X].6 % 4 U B Y.,X[.[.9X{.0.XX}.[.{.p.r < ;.n A x w.n 0.Q.8.D 0 6 O.k. .",
"h.k.j.<X:X%XK.K C.q.w.Y.q.p.XX7X~.T.T.T.|.E.N $ # >.-.C =.x -.r.K.7.k 9 X +.l.X.",
"l.l.l.c.8X:Xr.%X+Xe.p.a.p.u.,.U.V.M ;.B ;.x & # d U.x j C k K.r.K.b 0 y ! j.j.l.",
"h.k.l.c.5.8X%X].+X'.a.'.a.a.v - 5 2 ;.P.XX!.~.V.L.m M A q.r.r.6.b l u ) l.X.` ` ",
"h. ...x.l.@.<X$X!.!.@X'.].t.D   H U % G /.].W.K.b G E.G G E.b b k p &.h.l.} ` ' ",
"` ~ ` } ..` O. X&X#X@X%Xf.W.*   5 P + l K.].].W.8.e.a.e.C m b D i a } ~  . .` ` ",
"| R  ...^ ~ _ ^ H.%X'.].].].6 + P w q k W.].t.t.7.m u u z Z x f O.j.h.` ^ l.j.k.",
"l.h.z.l.l. . .h.l.v.=X].^.!.C Z.K K N A F W.W.K.j &   . O M 1.l.z.x.x.j.x.x.l.z.",
"l.l.l.l.x.z.z.x.X.[ +.5.`.W.^.+X'.r.p.e.G K.A M o 1 1 # ! c.l.l.j.X.k.z.l.z.x...",
"h.j.h.l.l.z.h...[ ~ ' [ @.3._.'.!.p.p.8.r./.A i 4 m.%.o.+...E | | ]  .h.l.h.] ] ",
"~ ' ` X. . .` ` _ ` _ _ _ ~ _ O.*.<.S.V.<.1.O. .' ` [ ~ ~ ~ ~ ~ ` _ ~ } | ' | ' ",
"` ` ` [ ` } ' ~ ` ` T ~ ' ' _ [ / R ' ' _ ' _ _ ` ` ' / | ^ } ~ ~ T Y R R ` _ ' "
};
