/* XPM */
static char *dc__2_1661080536[] = {
/* columns rows colors chars-per-pixel */
"40 40 107 2 ",
"   c #0D0D0D",
".  c #170A0A",
"X  c #1B1D0E",
"o  c #151414",
"O  c #1C1515",
"+  c #1B1A1A",
"@  c #240C0C",
"#  c #330F0F",
"$  c #3D1B0E",
"%  c #221515",
"&  c #2A1313",
"*  c #221D1D",
"=  c #2B1C1C",
"-  c #371616",
";  c #321B1B",
":  c #3B1B1B",
">  c #212214",
",  c #252323",
"<  c #282727",
"1  c #2C2B2B",
"2  c #372727",
"3  c #3F2222",
"4  c #322D2D",
"5  c #3F2E2E",
"6  c #343232",
"7  c #393737",
"8  c #3C3939",
"9  c #462E0B",
"0  c #412424",
"q  c #452A2A",
"w  c #482F2F",
"e  c #4C3636",
"r  c #423D3D",
"t  c #4B3C3C",
"y  c #523F3F",
"u  c #3E4031",
"i  c #5F420C",
"p  c #6B5F07",
"a  c #7A6907",
"s  c #7B620A",
"d  c #4A4B3D",
"f  c #647721",
"g  c #454242",
"h  c #494444",
"j  c #4D4A4A",
"k  c #544242",
"l  c #584747",
"z  c #524F4F",
"x  c #5A4C4C",
"c  c #525143",
"v  c #575748",
"b  c #5B5B4C",
"n  c #555151",
"m  c #5B5454",
"M  c #5E5959",
"N  c #675B4F",
"B  c #605454",
"V  c #635D5D",
"C  c #685F5F",
"Z  c #707C43",
"A  c #6D6B5D",
"S  c #706D5E",
"D  c #666161",
"F  c #6A6464",
"G  c #836B09",
"H  c #5D8A04",
"J  c #628E05",
"K  c #649006",
"L  c #6B9505",
"P  c #6F9906",
"I  c #6C9708",
"U  c #739B07",
"Y  c #7C9E06",
"T  c #739C08",
"R  c #7B9F0C",
"E  c #77A006",
"W  c #7DA405",
"Q  c #77A008",
"!  c #7BA309",
"~  c #988208",
"^  c #819F07",
"/  c #A28F07",
"(  c #81A705",
")  c #84AA06",
"_  c #89AE06",
"`  c #84A40B",
"'  c #88A70A",
"]  c #85AB0A",
"[  c #89AE0A",
"{  c #90AD0D",
"}  c #8CB107",
"|  c #8DB20A",
" . c #92B50C",
".. c #95B90D",
"X. c #9ABD0E",
"o. c #8CAC12",
"O. c #9BB711",
"+. c #97BA10",
"@. c #9CBD11",
"#. c #9EC10F",
"$. c #9EC110",
"%. c #A2C30F",
"&. c #A3C511",
"*. c #A7C811",
"=. c #A9CA12",
"-. c #A4C018",
";. c #E1D801",
/* pixels */
"X.$.%.&.*.&...X.X.#.*.*.#...*.%.&.#.X.#.&.&.&.&.%... .&.&.&.%.%.....#...&.&.%.&.",
"&.&.%.*...X.$.&.%.%.&.*.#.| ..#.$.$.*...X.X.&.&.&.&.&.$.X...@.&.*.%.=.%.$.&.&. .",
"| X.| #. .E ( | %...=.+.E W | =.*.=...I L W _ [ ]  .[ I W ) P | ] } | ] ..[ T J ",
"] ) ) _ W W ] ( ] ( X. .W W | %.#.( ) W _ } _ ) ( _ [ ( ) ] W ( ) ) W W | ( W ] ",
"| _ | | E L _ ) ! ) ( ( } } ..| ! W ( ) ( ( ! E ] } | ! E (  .+.! T U ..*.%.|  .",
"&.&.&.&.| W ..X.| $.W ( X.*.#.*.| | )  .$.| $...X.&. .| U %.&.*.+.| | &.*.%.*.%.",
"&.=.&.=.&.&.%.*.&.%.&.$.$.*.%.%.&.&.&.&.*.&.&.&.%.&.$.$.$.*.&.$.#.%.&.&.%.*.#.#.",
"X.%.&.&.&.&.&.&.}  .&.&.&.&.....&.&.*.&.| [ ! [ #.&.|  .$.+.| _ } X.$. .*..._ _ ",
" ._ %.&. .#.[ X.f b A A A S A v X u d v A A A A A S b > c A A A ( ( | ( $.+.] ) ",
"[ } X.%.! _ W ] d j C M D F m 6 + < 1 6 7 7 7 7 8 8 M o j V M D | $.&.| ! &.+.+.",
"&.%.&.&.&.X.X.$.g n M n C F + O O O o O * O O O O O < O h m j D &.&.*.&.*.*.&.*.",
"&.&.&.&.=.&.&.=.7 g m m m g o @ # # . # # . # # @ @ +   8 j g m X.|  .&.&.*.*.+.",
"&.X.X.&.&.%.X.X.o o + + o , , & # # . # # . # # @ @ O   o + o + ] W ] ..%.#.....",
") _ _ .. .] ( _ g g g 8   g h q # # . # # . # # @ @ e h < 7 6 8 W ( ( | | ] [ ( ",
"X.X.) ) U _ ( ) n M F M + h e e : # . # # . # # @ @ k k 6 m j D  .X.$. .| U ! ! ",
"&.=.%.%.X.} } X.j m F M + 2 h y k # . # # . # # @ @ m m 6 M m D &.&.=.&.=.%.$.@.",
"%.*.$.*.*.*.&.*.m M M z O & q e l 0 . # # . # # x x - = 4 M M M %.#.*.*.*.*.*.%.",
"} ] [ ) ..&.#.#.o o o o % # ; 5 x x . # # . # # g r # # o o o o } W  .+.*.$.X...",
"} W ] _ ..X.}  .h h 8 4 * 4 @ @ l l = - # . B x l l # # < g h h W W W |  .| X.%.",
"#...#.%.*.=...T m M V z * ; @ @ w x r q # . k k @ @ # # 7 V M F W ) W L &.&.&.=.",
"#.&.*.*.$.$.$.$.z M F D % # @ @ # y 6 e m x l l @ @ # # 7 M n F #.#.*.X.&.$.&.&.",
"#.&.$.*. .[ #.$.n m M m % # @ @ # 0 t y d k # s @ p # # 1 m n M %...=.#.+.&.X.! ",
" .} ] | W W [ ] + + + + % # @ @ # # 6 e C V : $ ;.s # # o o + + ] _ ] (  .] E P ",
") _ ) _ ) ..] ! < < 1 7 % # @ @ # # x x y e y s G ~ # # o + g g ) ) ) ( ( ! W W ",
"#.#.} |  .=.&.*.r h M M O & @ @ 3 3 l l q 6 B N i / # # o 1 V n %.] Y H ( +.| X.",
"*.*.#...$.*.&.&.r z D M % # @ @ x x 5 w : 4 k k a 9 # # o 1 V z =.#.| [ | &.$.&.",
"%.*.%.&.*.#.X.#.7 h m z % # @ @ l l . # # . l m z q # #   < M m &.&.%.%.+.$.&.&.",
"*.*.&.#.*. .! }   o o o % # t t w w . # # . # y q q # # o   o o &... ...} $.=.*.",
"_ } ] ] | _ ] ] 1 1 1 4 * 4 g g # # . # # . # e x x y # * 1 1 1  .( _ X.%...%.| ",
"#.*.#. .[ P %.%.n n j h * ; n x # # . # # . # # q q k # 1 n z n [ ) X.&.=.&.&.@.",
"&.*.&.*.$.X.%.*.F F V z x B & & # # . # # . # # 3 l m x V F F F &.&.&.%.&.$.&.&.",
"#.%.&.=.*.&.&.&.Z F F F x B @ @ # # . # # . # # @ @ q q D F F F X.&.&.&.&.X.) ) ",
"#.....=.&.X.#.} [ o.-.@.O.{ R ` { X. .' ^ Y ` U ^ ' ^ ' ` ` o.! ] | %...*.| ) _ ",
"( ( ] _ ..( ) ) ) W | _ ] ] ) ( | |  . ._  .W W ( W _ | W W W W ( ! | (  . .( ) ",
"| T  . .! ! ( E I Q | ..X.I _ U P ( X.%.&.#.' ! %.%.&.=.[ K &...X.&.#.] Q &.$.&.",
"&.#.*.&.&. ...%.&.&.X.&.%.%.X. ...%.=.*.&.*.&.&.&.%.&.=. . .&.&.&.*.*.&.=.=.&.&.",
"&.$.%.*.=.*.%.=.X.[ X.#.&.%.&.&.%.=.#. ...&.&.*.&.X.| X.&.&.%.%.+.+.%.=.%.*.=.+.",
"#.#.X.*.*.%.X..._ W ) | &.! | ..} X.} U T ..&.@. ._ P ) #.+.T ] | )  .#.&.#.[ ( ",
"( _ ] X. . .) _ ( ) ( W ( W E ( ) E ) ( ]  .| ..( ) _ ( ) ( ( ) ) ( W | | _ } [ ",
"( ] ) _ _ _ _ W ( ) I W _ _ ) _ U U ) ) ) _ ( ( ) ) _ E } E ] ( ( L J L U ( ( _ "
};
