/* XPM */
static char *do__1_1661080537[] = {
/* columns rows colors chars-per-pixel */
"40 40 121 2 ",
"   c #0E0D0D",
".  c #150A0A",
"X  c #1A0A0A",
"o  c #141313",
"O  c #1A1515",
"+  c #1C1B1B",
"@  c #220C0C",
"#  c #2C0E0E",
"$  c #330F0F",
"%  c #2F110E",
"&  c #221D09",
"*  c #281F0B",
"=  c #35120F",
"-  c #38140F",
";  c #391F0E",
":  c #251414",
">  c #2C1212",
",  c #201F1F",
"<  c #331212",
"1  c #2D230C",
"2  c #282D0F",
"3  c #34220E",
"4  c #3C230E",
"5  c #372909",
"6  c #392B09",
"7  c #282D12",
"8  c #3B2411",
"9  c #382913",
"0  c #2D3217",
"q  c #252323",
"w  c #282727",
"e  c #2C2B2B",
"r  c #312B2B",
"t  c #353434",
"y  c #383636",
"u  c #3D3B3B",
"i  c #41260F",
"p  c #53330D",
"a  c #422710",
"s  c #413E3E",
"d  c #7E6509",
"f  c #4A4F31",
"g  c #4D5336",
"h  c #5A5C3E",
"j  c #434141",
"k  c #4A4646",
"l  c #4F4E40",
"z  c #4E4B4B",
"x  c #524E4E",
"c  c #5D5E43",
"v  c #555252",
"b  c #5A5656",
"n  c #5D5959",
"m  c #615C5C",
"M  c #5E6245",
"N  c #65664B",
"B  c #6A6B4C",
"V  c #72784C",
"C  c #6D6F54",
"Z  c #6F6D59",
"A  c #706F5A",
"S  c #6F7155",
"D  c #737456",
"F  c #727059",
"G  c #666161",
"H  c #6A6464",
"J  c #806709",
"K  c #5D8A04",
"L  c #628E05",
"P  c #649006",
"I  c #6B9505",
"U  c #6F9906",
"Y  c #6C9708",
"T  c #739207",
"R  c #739C07",
"E  c #75940B",
"W  c #78970F",
"Q  c #739C08",
"!  c #7D9C0F",
"~  c #6E8F12",
"^  c #7C9D13",
"/  c #77A006",
"(  c #7DA405",
")  c #77A008",
"_  c #7BA209",
"`  c #74803F",
"'  c #948107",
"]  c #978208",
"[  c #809F14",
"{  c #A79506",
"}  c #A89606",
"|  c #81A705",
" . c #84AA05",
".. c #89AE06",
"X. c #81A70A",
"o. c #85AB0A",
"O. c #89AE09",
"+. c #8CB107",
"@. c #8DB20A",
"#. c #92B60C",
"$. c #95B90D",
"%. c #9ABD0E",
"&. c #84A313",
"*. c #89A615",
"=. c #8BA916",
"-. c #8DAA18",
";. c #92AF17",
":. c #90AD19",
">. c #95B313",
",. c #97BA10",
"<. c #9CBD11",
"1. c #96B31A",
"2. c #9AB51B",
"3. c #9DB91B",
"4. c #9EC10F",
"5. c #9EC110",
"6. c #A1C30F",
"7. c #A3C511",
"8. c #A7C811",
"9. c #A9CA12",
"0. c #EAE201",
/* pixels */
"%.5.6.8.7.6.$.%.%.%.9.7.6.%.7.7.7.4.%.4.8.6.7.6.7.$.$.7.7.8.4.6.$.<.4.$.7.5.5.7.",
"7.7.6.8.$.%.5.8.6.6.7.8.%.@.$.4.5.7.7.$.%.%.7.7.7.7.7.<.$.$.%.7.7.5.8.7.5.7.7.$.",
"@.%.+.4.#./ X.+.6.#.9.%._ ( ..8.8.8.$.Y I ( o.O.o.@.O.Y (  .U @.+.+.+. .,.O.U L ",
"o.o. ...( (  . . .| %.#.( ( #.6.4. . .( ..+.+.o. ...O. . .o.( o.(  .( ( @. .( o.",
"@.O.+.+./ I O.o.!  .| | +...<.O.) ( | ..( | ( ) o.+.+._ /  .#.%.) R Q <.8.6.+.#.",
"7.7.7.7.+._ $.%.#.<.( | <.7.5.7.@.+...+.<.@.5.,.%.7.#.@.R 4.7.7.,.+.@.7.8.6.8.8.",
"7.9.7.9.7.7.6.8.8.6.5.5.6.8.7.7.7.7.7.8.9.7.7.5.7.7.7.5.5.7.7.5.4.8.7.7.6.8.4.4.",
"<.6.7.9.7.7.6.6.o.=.3.3.2.3.:.*.>.1.3.1.=.&.^ &.3.3.&._ 1.1.=.&.+.$.5.$.8.$.o.o.",
"@.+.6.7.#.6.O.>.g b H H H H H u o u j b H G G G H H k o v H H S X.( +.X.5.%. . .",
"@.+.%.4._ ..| W f v n v H H u + , , , 7 q q q q q e k o v n n D #.5.7.@._ 5.%.,.",
"7.6.7.7.6.%.%.=.j b m b H n o : : : O > : o : > o O e . v x v S 7.7.9.7.8.8.8.7.",
"7.7.7.7.9.8.7.;.e s k z k w   # # # @ $ $ . $ $ X # +   u y u h <.O.#.7.7.8.8.%.",
"7.%.$.8.6.6.%.&.+ + + O   O . # $ # @ $ $ . $ $ . # O o O o o 0  .( o.$.7.%.$.$.",
"o.....$.#.O.| [ x x v s o O X # $ # @ $ $ . $ $ X # : + u s j M (  .( @.@...@.X.",
"%.%. ...R ..| ^ x n H x + : X # $ # @ $ $ . $ $ X # > O k x v D #.%.5.#.@.U ( ) ",
"6.9.6.6.%.+.+.=.v m H x O > X # $ # @ $ $ . $ $ X # $ O k n m D 7.7.9.7.8.7.<.<.",
"6.8.7.7.8.7.7.1.k k k y : $ X # $ # @ $ $ . $ $ X # $ : y k k c 5.5.8.7.8.7.9.7.",
"+...o.X.#.5.7.&.o o     : < X # $ # @ $ $ . $ $ X # $ > o o o 7 +.( #.<.7.7.%.#.",
"+. .....%.%.+.*.v v k y w r X # $ # @ $ $ . $ $ X # $ $ u x v c | ( ( +.,.+.%.7.",
"4.@.4.6.8.9.%.~ v n m z > < X # $ # @ $ $ X $ $ X # $ $ k n n Z (  .( I 5.8.7.9.",
"5.7.7.8.6.7.%.-.v m H n > < . # $ # @ $ $ . - - X ; < < k n m D 4.4.8.4.7.5.7.7.",
"5.7.5.8.$.o.%.1.k k z j > $ X # $ # @ $ $ . i J 6 J $ > t k k c 7.$.8.%.,.7.$.X.",
"@.+.o.+.( ( o.E o o o + : $ X $ $ # @ $ $ . $ p 0.p $ <   o + 7 ...... .,.X.R U ",
"o.+. .+...$.o.E y y j u > $ X # $ # @ $ $ . < { p } $ > . t v c (  .(  .( | ( ( ",
"4.4.+.+.,.9.7.1.j x G z : < X # $ # @ $ $ . $ J ] d $ # . u n M 6.o._ K ..$.+.<.",
"9.8.%.%.5.7.7.:.s b H z > $ X # $ # @ $ $ X $ - 6 = $ <   s m N 9.4.@.o.@.5.5.7.",
"6.8.7.7.6.6.%.*.e u k y : $ X # $ # @ $ $ . $ $ X # $ >   e k h 7.7.6.6.%.7.7.7.",
"8.8.7.4.9.#._ T         : < X # $ # @ $ $ . $ $ X # $ %       2 8.$.#.$.O.%.9.8.",
"+.@.o.o.@.....W y y y t q r X # $ # @ $ $ . $ $ X # $ $ e y y f #.| ..$.6.$.6.#.",
"5.6.4.,.O.R 7.1.n n z j > < X # $ # @ $ $ . $ $ X # $ > s b n B O...$.9.9.7.7.%.",
"7.7.7.7.5.<.7.2.H H m z > < X # $ # @ $ $ . $ $ X # < > k H H D 7.7.5.7.7.5.4.6.",
"6.7.7.9.8.5.7.7.` Z F N 9 i 1 3 4 4 3 i 4 & 4 ; 1 4 a 9 l A A V %.7.7.7.7.%.| ..",
"%.#.$.9.7.%.4.+...@.9.6.6.#.....%.7.5.$.o. .@._ o.#.....E o...( ....6.%.7.#...o.",
"..( o...$.X. . ...( @...o... .| @.+.#.#...#. .(  .( ..+.( ( (  .( ( +.( #.#.|  .",
"@.Q #.$._ (  .) Y ) @.$.%.U o.R R  .%.6.8.4.o.) %.6.6.9.o.P 6.$.%.7.5.o.) 7.5.7.",
"7.4.8.6.5.#.$.6.7.7.%.7.6.6.%.#.$.6.9.7.6.8.4.7.7.6.8.8.$.#.7.6.7.8.8.7.9.9.7.8.",
"7.7.6.8.9.8.6.9.%.o.%.4.8.5.7.7.6.9.4.#.$.7.7.8.7.6.#.%.7.7.6.8.<.%.6.8.7.8.9.$.",
"%.4.%.8.9.6.%.$..._ ..+.4.( #.$.+.$.+.R Q $.7.4.#...I  .%.%.R o.+. .$.4.8.%.o.X.",
" .o...$.#.#..... . .( (  .( ) |  .(  .( o.$.O.#. . .o.|  .(  .(  . .( +.@...+...",
" . . .o..... .( |  .I ( +.o. ...R U .. . ...|  . . .../ +./ o. .( P P I Y ..( .."
};
