/* XPM */
static char *c__1_1661079712[] = {
/* columns rows colors chars-per-pixel */
"40 40 187 2 ",
"   c #010100",
".  c #060902",
"X  c #0A0D01",
"o  c #0A0C0A",
"O  c #0F1302",
"+  c #0D150B",
"@  c #0F190C",
"#  c #121602",
"$  c #151A02",
"%  c #111D0F",
"&  c #191E03",
"*  c #0F1010",
"=  c #131413",
"-  c #141B13",
";  c #1C1C1C",
":  c #1D2403",
">  c #142312",
",  c #1A2C16",
"<  c #1D251C",
"1  c #1F341B",
"2  c #252E03",
"3  c #2B3404",
"4  c #2F3805",
"5  c #333F05",
"6  c #202C1E",
"7  c #21361C",
"8  c #233B1E",
"9  c #232323",
"0  c #2B2C2C",
"q  c #242D22",
"w  c #2F3031",
"e  c #323333",
"r  c #3C3D3D",
"t  c #344204",
"y  c #3A4705",
"u  c #3B4A04",
"i  c #274121",
"p  c #294623",
"a  c #2D4B27",
"s  c #30422D",
"d  c #355A2E",
"f  c #32552B",
"g  c #385C31",
"h  c #3D5439",
"j  c #3D6734",
"k  c #4A5C05",
"l  c #435405",
"z  c #536409",
"x  c #566909",
"c  c #5B6D0A",
"v  c #536A05",
"b  c #5E710A",
"n  c #577304",
"m  c #4D6506",
"M  c #647B0A",
"N  c #637C07",
"B  c #406D37",
"V  c #42613C",
"C  c #45743B",
"Z  c #47783D",
"A  c #4A7E3F",
"S  c #424243",
"D  c #4B4B4C",
"F  c #464748",
"G  c #565657",
"H  c #4A7E40",
"J  c #53724E",
"K  c #53724D",
"L  c #5F6162",
"P  c #646566",
"I  c #6A6B6B",
"U  c #747576",
"Y  c #76777A",
"T  c #797A7C",
"R  c #688B04",
"E  c #738B0B",
"W  c #70860C",
"Q  c #6B9405",
"!  c #6D9408",
"~  c #6E9806",
"^  c #749405",
"/  c #749C06",
"(  c #7A980C",
")  c #7CA306",
"_  c #7BA309",
"`  c #4D8342",
"'  c #528C46",
"]  c #548D48",
"[  c #56924A",
"{  c #5A9A4D",
"}  c #5E9F51",
"|  c #63875C",
" . c #609F53",
".. c #5FA151",
"X. c #61A553",
"o. c #65A857",
"O. c #66A759",
"+. c #66A959",
"@. c #6AAB5C",
"#. c #6A9463",
"$. c #709A68",
"%. c #6EAD61",
"&. c #6EA363",
"*. c #70AE64",
"=. c #77A66E",
"-. c #6FB063",
";. c #72B266",
":. c #75B369",
">. c #79B66D",
",. c #7BB96F",
"<. c #79A671",
"1. c #7FAE76",
"2. c #7DBB71",
"3. c #7CB172",
"4. c #819C0B",
"5. c #81A706",
"6. c #83AA05",
"7. c #89AE06",
"8. c #84A20C",
"9. c #84AB0A",
"0. c #8AAE0A",
"q. c #8AA70E",
"w. c #91AF0E",
"e. c #8CB107",
"r. c #8DB20A",
"t. c #93B50C",
"y. c #96B90D",
"u. c #9ABD0E",
"i. c #98B70F",
"p. c #8DAA10",
"a. c #9CBD10",
"s. c #99B710",
"d. c #A0BE11",
"f. c #9EC10F",
"g. c #9EC110",
"h. c #A2C30F",
"j. c #A3C511",
"k. c #A6C811",
"l. c #A9C912",
"z. c #81BE76",
"x. c #86B97C",
"c. c #89C47E",
"v. c #85C17A",
"b. c #7B7D80",
"n. c #7E8082",
"m. c #8A8B8D",
"M. c #808181",
"N. c #929396",
"B. c #98999B",
"V. c #8ABE81",
"C. c #9C9EA1",
"Z. c #A4A5A6",
"A. c #AAABAC",
"S. c #A6A7A8",
"D. c #AEB0B0",
"F. c #BBBDBF",
"G. c #B1B2B3",
"H. c #8CC682",
"J. c #8FC884",
"K. c #90C986",
"L. c #95CD8B",
"P. c #95C68B",
"I. c #9BCB92",
"U. c #9DD194",
"Y. c #AACFA3",
"T. c #AED5A6",
"R. c #BADCB3",
"E. c #B1DAAA",
"W. c #BEBFC0",
"Q. c #BFC1C2",
"!. c #C3C4C5",
"~. c #CBCDCE",
"^. c #C7C8C9",
"/. c #CDCFD0",
"(. c #CFD0D1",
"). c #D1D2D3",
"_. c #DADBDC",
"`. c #CBE6C6",
"'. c #C7E5C2",
"]. c #D0E5CC",
"[. c #DEECDC",
"{. c #E0EDDD",
"}. c #E2E3E4",
"|. c #E6E7E8",
" X c #E7F3E5",
".X c #F5FAF4",
"XX c #FFFFFF",
/* pixels */
"u.g.j.j.j.j.y.u.u.a.k.k.f.u.k.j.g.f.y.y j.j.j.j.j.t.y.j.j.j.f.j.y.u.f.y.j.j.g.k.",
"j.j.h.k.y.u.g.k.h.j.k.j.f.r.y.f.g.j.E . c a.j.j.j.j.j.g.u.y.u.j.j.f.k.h.g.j.g.t.",
"r.u.r.f.t./ ) r.g.y.k.u.) ) 7.k.k.j.#   . ! 7.7.7.t.0.! ) 6.~ r.7.e.e.9.u.r.~ R ",
"7.6.6.7.) ) 7.6.6.6.u.t.) ) r.j.h.m   =   t 7.6.5.7.7.) 6.6.) 9.6.9.) ) r.) ) 7.",
"r.e.r.r.) Q 7.6.) 6.6.5.e.7.u.r.! . * Z.=   R ( 9.r.7._ ) 6.r.g./ / / a.k.h.t.y.",
"j.j.j.j.r._ y.u.t.a.) ) u.j.f.j.t   U W.P   2 s.u.g.y.t./ f.g.k.a.r.r.j.l.h.h.j.",
"j.l.j.l.g.j.j.k.j.h.f.j.j.j.j.8.  ; /.F.N.e   M f.k.g.g.g.g.j.g.f.j.j.j.h.j.u.u.",
"u.h.j.k.k.j.h.h.e.t.k.j.j.j.t.3 . m.).W.N.b.  # u.k.r.t.g.g.r.7.7.u.g.y.l.y.7.7.",
"r.k ( w.t.g.7.u.6.r.l.a.a.t.v   S /.(.W.N.N.S   l u.r.t.7.6.6.6.6.) r.) 4.x ^ 5.",
"r.y   X 2 k R 5.7.) _ 9.t.5.#   D.W.D.B.Y T T o X 0.h.l.r.6.h.t.8.N t O . . t.a.",
"j.E   . .     . 4 c 8.a.j.z     o                 2 q.a.w.N u $       *   2 k.j.",
"j.s.  9 N.L 0 *     . & : .                         . & X     . e P S.P   x l.u.",
"j.u.: . W.A.N.N.b.r         @ p C ' ..X.X.} ' C p +         T ^.(./.C.e   4.y.y.",
"7.7.u   B./.Z.N.F .     , Z ..X.X.X.X.X.X.X.X.X.X.} C ,     o I /.C.m.= # _ 7.) ",
"u.u.N   G ).W.w     > ` X.X.X.X.X.X.X.X.X.X.X.X.X.;.3.O.H >     w m.Y   t ~ 5._ ",
"j.j.t.# 9 !.0     i } o.X.X.X.X.o.+.@.@.@.+.X.X.x..XXX XI.} 8     9 F   W j.g.d.",
"j.j.j.4 . 9   . B X.X.X.X.+.z.c.L.L.L.L.L.L.J.v.R.XXXXXXXX[.%.j         s.j.l.h.",
"7.0.7.m       d X.X.X.o.v.K.L.L.L.L.L.L.L.L.L.L.E.XXXXXXXXXX{.*.d     # j.j.u.t.",
"7.6.5.n     d X.X.X.:.L.K.L.L.L.L.L.L.L.L.L.L.L.I. XXXXXXXXXXX XO.f     E r.u.h.",
"u.t.t.:   > X.X.X.,.L.c.:.c.L.L.L.L.L.L.L.L.L.L.L.E.XXXXXXXXXXXXY...%   : u.j.l.",
"j.j.z   X ' X.X.v.L.L.-.X.,.L.L.L.L.J.-.c.L.L.L.L.L.'.XXXXXXXXXX.X:.` o   c j.j.",
"g.g.O   p X.X.;.L.L.L.c.>.K.c.v.K.L.v...:.L.L.L.L.L.L.'.XXXXXXXXXXI.X.8   $ t.6.",
"r.R     [ X.@.L.L.L.L.L.L.K.X.X.@.L.L.c.L.L.L.L.L.L.L.L.R..XXXXXXXY.X.[     n ~ ",
"6.t   > X.X.c.L.L.L.L.L.L.c.X.X.o.J.L.L.L.L.L.L.L.L.L.L.L.U.`. X].-.X...-   t 5.",
"t.#   g X.@.L.L.L.L.L.L.L.L.:.@.z.L.L.K.J.L.L.L.L.L.L.L.L.L.L.L.v.....X.d . $ t.",
"p.. . H X.2.L.L.L.L.L.L.>.P.L.L.L.L.L.;.+.J.L.L.L.L.L.L.=.h <.L.K.o.X.X.`   . 0.",
"W   F = 7 $.J.L.L.L.L.K.%.K.L.L.L.L.L.z.*.K.P.L.L.H.K q D 9 #.L.L.;.X.X.{ o   E ",
"b   S.).Y 9 6 J J.L.L.L.L.L.L.L.L.L.L.L.L.L.J.x.h 9 I !._.; =.L.L.v.X.X...@   b ",
"l   0 _.|.|.D.G = e <.L.L.L.L.L.L.L.L.L.x.| q r S.}.|.|.m., H.L.L.c.X.X.X.%   l ",
"l     D |.|.|.}.^.U - 6 | K.L.L.L.L.x.K < G !.}.|.|.|.W.- ' K.L.L.J.X.X.X.-   k ",
"z   + , e F.}.|.|.|.{.D.r o x.L.L.h = N.}.|.|.|.|.}.M.- ' z.L.L.L.J.X.X...@   x ",
"M   + { a o G S.)._.).S.0 V K.L.L.$.o G F._._.^.m.w 8 [ ;.L.L.L.L.J.X.X.{ +   v ",
"4.  . [ X.X.j 1 @ + - a &.L.L.L.L.L.3.g - + @ , j [ o.>.L.L.L.L.L.c.X.X.[ .   ^ ",
"^ .   C @.J.2.%.%.@.>.H.L.L.L.L.L.L.L.K.:.+.X.X.@.;.H.L.L.L.L.L.L.z.X.X.B   o / ",
"r.:   8 X.H.L.L.L.L.L.L.L.L.L.L.L.L.L.L.L.L.L.L.L.L.L.L.L.L.L.L.L.%.X.X.1   2 g.",
"j.x   o ..2.L.L.L.L.L.L.L.L.L.L.L.L.L.L.L.L.L.L.L.L.L.L.L.L.L.L.K.o.X.X..   M k.",
"j.t.    B o.;.;.;.;.;.;.;.;.;.;.;.;.;.;.;.;.;.;.;.;.;.;.;.;.;.;.%.X.X.j   . d.y.",
"u.f.4   @ ` ` ` ` ` ` ` ` ` ` ` ` ` ` ` ` ` ` ` ` ` ` ` ` ` ` ` ` ` A @   5 9.6.",
"6.7.R .                                                                 . ^ r.7.",
"7.6.6.u                                                                 y 5.) e."
};
