/* XPM */
static char *mr1661079856[] = {
/* columns rows colors chars-per-pixel */
"40 40 182 2 ",
"   c #010100",
".  c #060902",
"X  c #090C03",
"o  c #0A0C0A",
"O  c #0E1101",
"+  c #0C140B",
"@  c #0F190D",
"#  c #121601",
"$  c #151902",
"%  c #111C0E",
"&  c #181D03",
"*  c #0F1010",
"=  c #131413",
"-  c #141C13",
";  c #1C1C1C",
":  c #1D2503",
">  c #152312",
",  c #1A2C16",
"<  c #1C241B",
"1  c #1E291C",
"2  c #1E321A",
"3  c #242C03",
"4  c #2F3A04",
"5  c #2A3503",
"6  c #323D05",
"7  c #20361B",
"8  c #233A1E",
"9  c #2C2C2D",
"0  c #252824",
"q  c #2E3F2B",
"w  c #333434",
"e  c #3A3A3A",
"r  c #344203",
"t  c #3B4B04",
"y  c #274121",
"u  c #2A4724",
"i  c #2E4F28",
"p  c #355A2E",
"a  c #32552B",
"s  c #395E32",
"d  c #3E5939",
"f  c #3E6935",
"g  c #3B6433",
"h  c #425304",
"j  c #495808",
"k  c #526408",
"l  c #566A09",
"z  c #5B6C0A",
"x  c #556E06",
"c  c #5F720A",
"v  c #597604",
"b  c #657A0A",
"n  c #637F06",
"m  c #40583C",
"M  c #406D37",
"N  c #45743B",
"B  c #47783D",
"V  c #497D3F",
"C  c #444545",
"Z  c #494A4B",
"A  c #474849",
"S  c #455F40",
"D  c #4F4F50",
"F  c #555656",
"G  c #4A7E40",
"H  c #577851",
"J  c #4C6947",
"K  c #636465",
"L  c #6B6C6D",
"P  c #7A7B7D",
"I  c #747676",
"U  c #6C840A",
"Y  c #688D05",
"T  c #738B0B",
"R  c #6B9605",
"E  c #6D9707",
"W  c #749405",
"Q  c #749C06",
"!  c #799A06",
"~  c #77910B",
"^  c #7A9A0B",
"/  c #7CA405",
"(  c #7BA309",
")  c #4D8342",
"_  c #528A46",
"`  c #538B47",
"'  c #569249",
"]  c #5B9B4E",
"[  c #5D9F50",
"{  c #62875B",
"}  c #5FA151",
"|  c #61A553",
" . c #65A857",
".. c #67A959",
"X. c #6AAB5C",
"o. c #67A75A",
"O. c #6D9F64",
"+. c #699261",
"@. c #6EAF61",
"#. c #73AF66",
"$. c #75A16D",
"%. c #72B266",
"&. c #76B56A",
"*. c #79B56D",
"=. c #7AB86D",
"-. c #7DBB72",
";. c #7EB374",
":. c #79A771",
">. c #829E0C",
",. c #81A705",
"<. c #84AA06",
"1. c #89AE06",
"2. c #89A50F",
"3. c #84AA0B",
"4. c #8AAE0B",
"5. c #81A70A",
"6. c #91AF0E",
"7. c #8CB107",
"8. c #8DB20A",
"9. c #92B50D",
"0. c #96B90D",
"q. c #9ABD0E",
"w. c #8DAA10",
"e. c #9BBD10",
"r. c #A0BE11",
"t. c #9EC10F",
"y. c #9EC110",
"u. c #A2C30F",
"i. c #A3C511",
"p. c #A6C811",
"a. c #A9C912",
"s. c #81BE75",
"d. c #83B47A",
"f. c #85BC7B",
"g. c #85C17A",
"h. c #89C47E",
"j. c #7D7F81",
"k. c #828485",
"l. c #86888B",
"z. c #8C8E91",
"x. c #919395",
"c. c #9B9C9D",
"v. c #8BBF81",
"b. c #9D9FA2",
"n. c #A3A5A6",
"m. c #A5A7A8",
"M. c #AAABAD",
"N. c #AEB0B1",
"B. c #B7B8B9",
"V. c #8DC682",
"C. c #8FC985",
"Z. c #91CA86",
"A. c #95CD8B",
"S. c #95CB8B",
"D. c #9DD193",
"F. c #9CC793",
"G. c #A4CB9B",
"H. c #AED5A6",
"J. c #B3DBAC",
"K. c #B3D5AC",
"L. c #C4E3BE",
"P. c #BEC0C2",
"I. c #C1C3C3",
"U. c #CBCCCD",
"Y. c #C6C7C8",
"T. c #CCCED0",
"R. c #CED0D1",
"E. c #D1D3D4",
"W. c #DBDBDC",
"Q. c #D6D7D8",
"!. c #C8E6C3",
"~. c #D2E6CE",
"^. c #E1EEDF",
"/. c #DEDFE0",
"(. c #DFE0E1",
"). c #E3E4E5",
"_. c #E6E7E8",
"`. c #E3EFE0",
"'. c #E9F3E7",
"]. c #E8F3E6",
"[. c #FFFFFF",
"{. c #F4FAF4",
/* pixels */
"q.y.i.i.i.i.0.q.q.t.p.i.t.q.p.i.i.t.q.0.h i.i.i.r.0.0.i.i.u.u.i.q.q.t.9.i.i.y.p.",
"i.i.u.p.0.q.y.p.i.i.i.p.t.8.0.t.y.y.p.l . T i.i.i.i.i.e.q.0.q.i.i.t.i.i.y.i.y.9.",
"8.q.8.t.9.Q / 8.u.9.a.0./ / 1.p.i.a.5..   # <.4.3.9.4.E / <.E 8.1.8.8.<.0.8.E Y ",
"1.<.<.1./ / 1.<.<.<.q.9./ / 8.i.y.<.5   =   z <.<.<.1.<.<.<./ 1.<.<./ / 8.<.( 1.",
"8.7.8.8.( R 1.<.( <.<.<.7.1.q.9.( v   ; m.* + Y <.7.8.( Q 5.9.q.( Q Q e.p.u.9.9.",
"i.i.i.i.8./ 0.0.8.y./ / q.u.t.i.8.:   L P.L   r q.p.9.8.Q i.i.p.0.8.4.y.a.u.u.i.",
"i.a.i.a.i.i.p.p.i.u.u.i.i.i.u.u.c   w x.P.T.=   2.p.y.y.y.i.y.y.t.i.p.i.p.u.q.q.",
"q.u.i.a.i.y.i.u.7.9.p.i.i.i.0.4.O . k.x.P.E.k.  4 i.8.8.y.e.8.7.7.q.y.9.a.0.1.3.",
"8.! z >.4.y.4.q.<.8.a.t.q.0.<.h   Z x.x.P.E.R.e   n 8.9.<.,.<.<.5.<.4.<.4.T h <.",
"8.<.  . # r x ! 1./ ( 3.0.<.W . * P j.I c.N.P.m.  & e.a.9.<.u.9.4.>.k 3 .   h e.",
"i.r.3   *       $ h U 9.e.2.:                 o     z i.0.^ z 5 .     . .   ^ i.",
"i.i.k   L m.K 9 .     X & .                         . : $ .     = 9 K x.; . r.q.",
"q.q.~   w b.T.E.U.I         @ u N ` } |  .} _ B u @         C j.x.x.N.P.  3 9.9.",
"1.1./ O = z.n.T.K .     , B [ | | | | | }  .| | } [ B ,     . Z x.m.R.x.  h 4.<.",
"q.q.<.6 . j.l.9     > ) X.*.#.| | | | |  .} | | | | | | V >     w P.R.F   v 5.( ",
"u.a.u.U   Z ;     q } F.'.[.{.f.| |  .X.X.X...| | | | } } ] q     w P.; # 9.y.q.",
"i.i.i.w.        f #.^.[.[.[.[.J.g.C.A.A.A.A.A.A.h.=.X.| | | | f     0   r p.a.r.",
"1.1.4.5.O     s %.`.[.[.[.[.[.H.A.A.A.A.A.A.A.A.A.A.Z.-. .| | | p       b i.q.0.",
"7.<.<.n     a o.'.[.[.[.[.[.'.D.A.A.A.A.A.A.A.A.A.A.A.A.Z.&.| | } p     U 4.q.i.",
"t.8.6.:   > | K.[.[.[.[.[.[.H.A.A.A.A.A.A.A.A.A.A.A.C.%.h.A.=.| } } -   : e.i.a.",
"y.i.k   . _ *.{.[.[.[.[.[.L.A.A.A.A.A.h.%.C.A.A.A.A.=.| %.A.A.g.| | ) .   l i.i.",
"y.y.O   u | G.[.[.[.[.[.!.A.A.A.A.A.A.&.} g.A.Z.g.h.Z.&.h.A.A.A.%.| | y   & 0.5.",
"8.U     ' | H.[.[.[.{.J.A.A.A.A.A.A.A.Z.h.A.Z...| | C.A.A.A.A.A.Z.X.| '     x E ",
"1.r   > | | #.~.].!.D.A.A.A.A.A.A.A.A.A.A.A.C. .| | C.A.A.A.A.A.A.g.| | %   r ,.",
"9.#   g } | | g.A.A.A.S.A.A.A.A.A.A.A.Z.A.A.A.f.X.&.A.A.A.A.A.A.A.A.X.| p   $ 9.",
"w.    _ | | ..Z.S.$.m :.A.A.A.A.A.A.Z...&.A.A.A.A.A.Z.=.A.A.A.A.A.S.-.| B   . 4.",
"T   o ] | | &.A.S.{ 0 A 0 H h.A.A.A.Z.X.s.S.A.A.A.A.C.X.Z.A.A.A.S.Z.+.7 = Z   ~ ",
"c   @ } | } g.A.S.$.0 /.I.K < m d.A.A.A.A.A.A.A.A.A.A.A.A.A.A.V.H < 0 P E.c.  c ",
"h   , | | | C.A.A.h.> z._._.(.m.w 9 { h.S.S.A.A.A.A.A.A.Z.$.u = F B.).).Q.0   h ",
"h   , | | | C.A.A.A._ - I._._.).).B.F < J f.A.A.A.S.Z.{ 1 ; I U._._._.).A     j ",
"k   > [ | | Z.A.A.A.s._ - k.^.)._._._.).x.= S A.A.f.X e N.)._._._.).B.w , +   l ",
"b   + [ | | C.A.S.S.S.#.' 8 w x.Y.W.W.B.F o $.A.A.S.m 9 N.E./.R.n.D + i ' +   x ",
"^   . ' | | h.A.A.A.A.A.=.| ' g , @ + - s ;.A.A.A.A.A.@.u % + % 7 f |  .` .   W ",
"W .   B | | s.A.A.A.A.A.A.V.&...| | o.=.C.A.A.A.A.A.S.S.V.=.X.X.#.=.V...N   o Q ",
"9.:   8 | | %.A.A.A.A.A.A.A.A.A.A.A.A.A.A.A.A.A.A.A.S.S.A.A.A.A.A.A.V.| 2   3 y.",
"u.l   o } | ..Z.A.A.A.A.A.A.A.A.A.A.A.A.A.A.A.A.A.A.A.S.A.A.A.A.A.A.=.} .   b p.",
"i.0.    M | | @.%.%.%.%.&.%.%.%.%.%.%.%.%.%.%.%.%.%.%.%.%.%.%.%.%.%. .g   . e.0.",
"q.q.4   % V ) ) ) ) ) ) ) ) ) ) ) ) ) ) ) ) ) ) ) ) ) ) ) ) ) ) ) ) G @   6 1.5.",
"<.1.Y .                                                                 . W 9.1.",
"3.<.<.t                                                                 r <./ 7."
};
