/* XPM */
static char *_f5ec12ffc0e4d0c8bcd500e4ab7be5cbNE0g8wjHfGRvWZT[] = {
/* columns rows colors chars-per-pixel */
"40 40 214 2 ",
"   c #2A0F00",
".  c #2D0700",
"X  c #330F00",
"o  c #380F00",
"O  c #2E1202",
"+  c #2C1A03",
"@  c #2D140B",
"#  c #2D1A0B",
"$  c #241304",
"%  c #331501",
"&  c #3A1500",
"*  c #341901",
"=  c #3B1C02",
"-  c #31160A",
";  c #341B0B",
":  c #3A1C0C",
">  c #381D15",
",  c #2E1918",
"<  c #3D210B",
"1  c #3D2214",
"2  c #3E261C",
"3  c #362318",
"4  c #392624",
"5  c #4A1E00",
"6  c #431E0B",
"7  c #411C02",
"8  c #45220C",
"9  c #472306",
"0  c #422513",
"q  c #472A15",
"w  c #4B301D",
"e  c #593A1E",
"r  c #56351A",
"t  c #53300A",
"y  c #623E1E",
"u  c #6B3E1D",
"i  c #4D312D",
"p  c #553622",
"a  c #593723",
"s  c #5A3A23",
"d  c #583B26",
"f  c #623D24",
"g  c #5F411F",
"h  c #5F4022",
"j  c #5B412B",
"k  c #654226",
"l  c #694625",
"z  c #6F4A27",
"x  c #64432A",
"c  c #6A452A",
"v  c #66492C",
"b  c #6C492B",
"n  c #674927",
"m  c #734B27",
"M  c #744C2B",
"N  c #784B2D",
"B  c #73452D",
"V  c #6E502C",
"C  c #78542C",
"Z  c #6B4732",
"A  c #654932",
"S  c #6C4A33",
"D  c #654533",
"F  c #724B31",
"G  c #794C35",
"H  c #6E5033",
"J  c #715234",
"K  c #7B5331",
"L  c #7A573D",
"P  c #7E603A",
"I  c #6F594A",
"U  c #725B46",
"Y  c #745F51",
"T  c #785E52",
"R  c #6D5952",
"E  c #73614C",
"W  c #79634B",
"Q  c #736151",
"!  c #7D6355",
"~  c #825C34",
"^  c #845D3B",
"/  c #895F3E",
"(  c #865936",
")  c #905F3F",
"_  c #85623D",
"`  c #8C623B",
"'  c #896335",
"]  c #90643E",
"[  c #93683D",
"{  c #885F42",
"}  c #835F46",
"|  c #856342",
" . c #8B6242",
".. c #8B6A44",
"X. c #85654A",
"o. c #89664B",
"O. c #896B4C",
"+. c #876A4C",
"@. c #916542",
"#. c #9A6F4B",
"$. c #976B45",
"%. c #8B724E",
"&. c #95724B",
"*. c #9A744B",
"=. c #9F7A4E",
"-. c #9C7246",
";. c #8C6E52",
":. c #846556",
">. c #926E55",
",. c #8E7053",
"<. c #957254",
"1. c #9A7354",
"2. c #9C7B5C",
"3. c #997758",
"4. c #A47847",
"5. c #A3774C",
"6. c #A8764F",
"7. c #A47B4D",
"8. c #AA7D4E",
"9. c #A17143",
"0. c #A47C52",
"q. c #AB7C53",
"w. c #AE7D59",
"e. c #A57755",
"r. c #B07E56",
"t. c #9C7963",
"y. c #AA804E",
"u. c #A48354",
"i. c #AC8154",
"p. c #A5845A",
"a. c #AC835A",
"s. c #AE8C5F",
"d. c #A58A5D",
"f. c #B2875E",
"g. c #B28B5E",
"h. c #B08052",
"j. c #BA905E",
"k. c #AC8563",
"l. c #A68A63",
"z. c #AD8A63",
"x. c #A9866C",
"c. c #AC8B6B",
"v. c #A68766",
"b. c #B48C62",
"n. c #B98F64",
"m. c #B28B6A",
"M. c #AE926D",
"N. c #B59163",
"B. c #BB9365",
"V. c #B6926C",
"C. c #BC946B",
"Z. c #BD9A6D",
"A. c #AD8B72",
"S. c #B59472",
"D. c #BE9A73",
"F. c #BD9B7B",
"G. c #B99678",
"H. c #B09276",
"J. c #BBA17A",
"K. c #C09364",
"L. c #C3956C",
"P. c #C29C6D",
"I. c #C29D75",
"U. c #C99E74",
"Y. c #C39D7A",
"T. c #C99E7D",
"R. c #C6A176",
"E. c #C9A175",
"W. c #C4A27A",
"Q. c #CAA47B",
"!. c #C9A97E",
"~. c #D1A579",
"^. c #BD9D84",
"/. c #BFA187",
"(. c #BCA18E",
"). c #C19F83",
"_. c #C3A383",
"`. c #CAA481",
"'. c #CEAB83",
"]. c #CCAD8A",
"[. c #C7A987",
"{. c #D3AC82",
"}. c #D4AC8B",
"|. c #C9B08A",
" X c #D5B48C",
".X c #CBAD91",
"XX c #CFB093",
"oX c #DDBA93",
"OX c #DDBA9A",
"+X c #E2BC9C",
"@X c #E0BD95",
"#X c #DABAA1",
"$X c #E2BEA2",
"%X c #DEC39A",
"&X c #E6C09E",
"*X c #E1C396",
"=X c #DFC4A3",
"-X c #E3C1A3",
";X c #EAC6A2",
":X c #E9C6A9",
">X c #E6C2A8",
",X c #F5CEA6",
"<X c #F9DDBD",
"1X c #FFE6CD",
"2X c #FCE8CD",
"3X c #F9E2C7",
"4X c #FFE4D3",
"5X c #FFEDD5",
"6X c #FEEFDC",
"7X c #FEECDC",
"8X c #FFF2DB",
"9X c #FFF1D6",
"0X c #FFEDE1",
"qX c #FFFBEA",
/* pixels */
"4 4 $ + + + + $ @ # # $ + + @ - - @ - O @ @ - O ; - @ ; @ - - ; # $ # + $ O > 4 ",
"4 4 E U W E Q Y Y Q Q E E E T T T T Y Y Y Y Y Y Y Q Y Y E Q Y Y Q I E U ! ! i > ",
", R qX9X1X5X0X7X0X0X7X5X9X5X7X7X7X6X6X6X7X8X8X8X6X7X7X8X7X7X6X6X3X9X9X3X8X8X:.@ ",
"@ I 5X3X<X2X4X4X4X4X2X5X2X2X4X4X2X2X2X1X2X2X2X2X1X2X2X2X2X2X2X2X9X9X2X<X3X8X! @ ",
"< j XXW. X!.`.XX.X.X|.|.].]..X}.}.{.{.{.{.{.{.{.{.{.{.{.{.{.{.'.[.J.|. X[.$XZ @ ",
"* k W.&.P.Z.D.k.c.v.v.l.z.z.x.x.z.f.f.s.f.g.f.g.s.f.f.f.a.f.f.z.v.M.J.p.X.G.Z > ",
"0 x S.( z.Q.c.f Z Z v b n v Z Z Z A A A A v A A A v A v A A A v h u.!.s.*._.G - ",
"6 s `.L.I.`. .= & % * * % = & & % O - * - % O - - - - - O * ; * = | I.I.Z.T.f & ",
"= l D.s.~ j.0.% _ c.d.d.a.z.z.v.x.x.x.v.x.x.x.v.v.c.x.x.A.c.G.o.o >.Y.Y.V.u 6 6 ",
"= y J.B.u.P.*.% S.-X%X%X*X+X-X&X+X+X;X&X+X+X;X+X+X$X&X&X+X+X$XF.o } T.V.K X & 0 ",
": j W.D.Y.Q.>.X x.#XOXOXoXOX+X$X@XoXoXoX@XoXoXoX@XoX%X*XoXoX@XV.. >.}.U.f.K 8 6 ",
": x /.V.Y.`.1.o X.S.c.M.m.m.x.m.b.f.s.s.b.f.s.s.f.g.g.s.b.b.V.$.& o.G.a.U.Q.F & ",
": f W.Z.N.R.#.& U k.=.=.u.7.6.e.0.7.u.7.0.u.7.u.7.=.7.y.0.=.a.' o >.k.~ Z.'.s 6 ",
": x I.R.P.E.$.7 ^ a.*.4.7.7.q.6.0.7.7.7.7.4.7.7.u.7.7.7.7.=.a._ 7 U `.Z.N.R.F X ",
"6 c D.g.U.~.-.& / a.5.8.y.8.q.q.q.q.q.q.q.q.q.q.q.q.q.q.q.8.g.] =  .!.Z.P.R.v = ",
"% Z S./ B.Q.*.o ^ k.e.a.i.q.q.w.q.q.q.q.q.q.q.q.q.8.q.r.r.6.f.] % %.P.s.B.!.n * ",
"6 a n.6.K.~.1.& J |  .` ( $. .{ ` ` / / / ` / ` / ` @.~ ` @. .K % ,.d.~ B.Q.v = ",
"; Z  XK.~.).o.= s b m N u G c z m z m z m z z z m l N z M b z k = X.I.b.K.R.b + ",
"0 8 #.n.L.T.3.& n n c G G G k b z z z n z z b z b k B b F c z c * X.Q.I.U.{.c * ",
"0 : 7 9.U.).>.: + < o o 7 o & = % & % & & % & % = & & % & & 7 % * ;.Q.u.7.I.k < ",
"2 1 J C.L.Y.t.% V %.P .. .o.o.o.o.o.o.o.+.o.o.o.+.o.o.X.X.X.>.J * +.{.n.[ C.J O ",
"# D ].P.U.`.:.% H.=X%X%X$X$X-X+X-X-X-X-X-X-X$X$X#X$X>X$X$X$X>X^.O X.D.n.B.Q.H + ",
"2 w m.Z.C.).t.O v.%XOX+X+X+X%XOXOXOXOXOXOXOXOXOXOX$X+X+X$XOX-XA.% +.=.$.I.U.n = ",
"2 = t g.U.T.<.+ %.!.Z.I.U.I.I.I.I.I.I.I.Y.Y.I.Y.D.Y.F.Y.Y.D.'.3.O <.m.g.Q.Z.H * ",
"1 8 ` B.L.}. .7 P u.=.7.5.q.0.=.7.7.=.7.=.0.7.7.5.e.0.=.=.0.0._ % ;.Q.P.n.Q.H + ",
": d P.~.K.L.1.& ' u.=.7.6.q.7.7.7.7.7.8.7.7.7.8.7.7.q.7.0.7.i.` * O.Y.I.P.Q.k < ",
": x Q.K.9.9.e.& ' d.i.h.q.r.q.i.y.y.y.y.8.y.y.y.i.8.i.q.i.i.i.` % O.W.L.U.!.k = ",
"; x R.P.r.f.>.% L u.4.q.6.e.6.7.4.4.4.4.4.4.4.4.7.4.4.4.8.4.8._ % O.Q.0.q.Q.b * ",
": j E.j.L.}.1.& ..d.u.i.w.w.q.i.a.i.i.i.q.i.i.i.i.q.i.q.i.i.a.$.* X.Q.*.-.R.H % ",
"1 j I.' h.~.1.& V ..` `  .@.` ] ` ` ` ] ] ] ] ` ] ` ` ` ] ' @.C * X.{.B.n.Q.H + ",
"; j W.=.f.Y.>.% e C m N N N m M m m m m m m m m N m N m m z K k % O.W.B.~.Q.n * ",
"3 j F.W.C.`.3.* r b y c f f k k k k k l k k k k k k c k k f B e = ;.a.` C.N.e < ",
"0 d _.G._._.O.  O O @ O O O + + O O O O O O O O @ O @ O %   % X X ' C.a.0.9 = < ",
"% b J.3.c.Y.F._././.).).(.(./.(.(.(.(.(.(.(.(.(./.(.(./.(.(.(.(.D.I.R.V.c.x = 0 ",
"& N V...w.L.{.,X;X;X:X:X:X:X-X:X;X;X;X;X;X;X;X;X;X;X;X;X;X;X;X;X,X!.D.D.[._.x : ",
"5 u L.C.L.L.n.f.n.m.m.m.m.N.m.z.b.b.f.n.n.b.b.b.b.b.b.b.g.n.b.b.n.V.D.M.c.^.A % ",
"5 5 @.] ( ( $.' ) ) @. . . .` ` ` ` ] ` ] ] ] ` ` ` ` ` ` ` ` ` K ~  .o.X.+.d 1 ",
"9 r  . .` ` _  ./ { { { | | { | { /  .{  .{ { { { / { / { / { _ <.o.L | o.U a ; ",
"0 0 p w e r q e a a s a a a e e p p p p p p a p a a a a a a a a 8 r e d s p 0 > ",
"2 ; 3 ; < < < = = : : : ; : = ; > : : : : : : : : : > ; : : > : 8 9 & = : 6 ; 0 "
};
